<mxfile host="Electron" modified="2023-11-23T07:15:33.242Z" agent="Mozilla/5.0 (Macintosh; Intel Mac OS X 10_15_7) AppleWebKit/537.36 (KHTML, like Gecko) draw.io/22.1.2 Chrome/114.0.5735.289 Electron/25.9.4 Safari/537.36" etag="dPn96TsVctExgA26_Tyz" version="22.1.2" type="device">
  <diagram name="Page-1" id="qdFyxSqgyczc50ukwJnV">
    <mxGraphModel dx="1886" dy="2891" grid="1" gridSize="10" guides="1" tooltips="1" connect="1" arrows="1" fold="1" page="1" pageScale="1" pageWidth="850" pageHeight="1100" math="0" shadow="0">
      <root>
        <mxCell id="0" />
        <mxCell id="1" parent="0" />
        <mxCell id="Oktcj9MqUROiAOQRCkaV-20" style="edgeStyle=none;shape=connector;rounded=0;orthogonalLoop=1;jettySize=auto;html=1;exitX=1;exitY=0.3333333333333333;exitDx=0;exitDy=0;exitPerimeter=0;entryX=0;entryY=0.5;entryDx=0;entryDy=0;labelBackgroundColor=default;strokeColor=default;align=center;verticalAlign=middle;fontFamily=Helvetica;fontSize=11;fontColor=default;endArrow=none;endFill=0;" parent="1" source="k9qatuvnpu8ZYcSoqn7l-3" target="k9qatuvnpu8ZYcSoqn7l-24" edge="1">
          <mxGeometry relative="1" as="geometry" />
        </mxCell>
        <mxCell id="Oktcj9MqUROiAOQRCkaV-23" style="edgeStyle=none;shape=connector;rounded=0;orthogonalLoop=1;jettySize=auto;html=1;exitX=1;exitY=0.3333333333333333;exitDx=0;exitDy=0;exitPerimeter=0;entryX=0;entryY=0.5;entryDx=0;entryDy=0;labelBackgroundColor=default;strokeColor=default;align=center;verticalAlign=middle;fontFamily=Helvetica;fontSize=11;fontColor=default;endArrow=none;endFill=0;" parent="1" source="k9qatuvnpu8ZYcSoqn7l-3" target="k9qatuvnpu8ZYcSoqn7l-47" edge="1">
          <mxGeometry relative="1" as="geometry" />
        </mxCell>
        <mxCell id="k9qatuvnpu8ZYcSoqn7l-3" value="User" style="shape=umlActor;verticalLabelPosition=bottom;verticalAlign=top;html=1;outlineConnect=0;" parent="1" vertex="1">
          <mxGeometry x="-400" y="300" width="30" height="60" as="geometry" />
        </mxCell>
        <mxCell id="k9qatuvnpu8ZYcSoqn7l-5" value="Receive Monthly Promo News and other Membership Benefits" style="ellipse;whiteSpace=wrap;html=1;" parent="1" vertex="1">
          <mxGeometry x="140" y="690" width="120" height="80" as="geometry" />
        </mxCell>
        <mxCell id="k9qatuvnpu8ZYcSoqn7l-8" value="" style="endArrow=none;html=1;rounded=0;exitX=1;exitY=0.3333333333333333;exitDx=0;exitDy=0;exitPerimeter=0;entryX=0;entryY=0.5;entryDx=0;entryDy=0;" parent="1" source="k9qatuvnpu8ZYcSoqn7l-3" target="k9qatuvnpu8ZYcSoqn7l-5" edge="1">
          <mxGeometry width="50" height="50" relative="1" as="geometry">
            <mxPoint x="290" y="620" as="sourcePoint" />
            <mxPoint x="340" y="570" as="targetPoint" />
          </mxGeometry>
        </mxCell>
        <mxCell id="k9qatuvnpu8ZYcSoqn7l-10" value="Database" style="shape=umlActor;verticalLabelPosition=bottom;verticalAlign=top;html=1;outlineConnect=0;" parent="1" vertex="1">
          <mxGeometry x="620" y="-170" width="30" height="60" as="geometry" />
        </mxCell>
        <mxCell id="k9qatuvnpu8ZYcSoqn7l-11" value="" style="endArrow=none;html=1;rounded=0;exitX=1;exitY=0;exitDx=0;exitDy=0;entryX=0;entryY=0.3333333333333333;entryDx=0;entryDy=0;entryPerimeter=0;" parent="1" source="k9qatuvnpu8ZYcSoqn7l-5" target="k9qatuvnpu8ZYcSoqn7l-10" edge="1">
          <mxGeometry width="50" height="50" relative="1" as="geometry">
            <mxPoint x="290" y="620" as="sourcePoint" />
            <mxPoint x="340" y="570" as="targetPoint" />
          </mxGeometry>
        </mxCell>
        <mxCell id="k9qatuvnpu8ZYcSoqn7l-15" value="Login" style="ellipse;whiteSpace=wrap;html=1;" parent="1" vertex="1">
          <mxGeometry x="120" y="-780" width="110" height="60" as="geometry" />
        </mxCell>
        <mxCell id="k9qatuvnpu8ZYcSoqn7l-16" value="" style="endArrow=none;html=1;rounded=0;exitX=1;exitY=0.3333333333333333;exitDx=0;exitDy=0;exitPerimeter=0;entryX=0;entryY=0.5;entryDx=0;entryDy=0;" parent="1" source="k9qatuvnpu8ZYcSoqn7l-3" target="k9qatuvnpu8ZYcSoqn7l-15" edge="1">
          <mxGeometry width="50" height="50" relative="1" as="geometry">
            <mxPoint x="290" y="620" as="sourcePoint" />
            <mxPoint x="340" y="570" as="targetPoint" />
          </mxGeometry>
        </mxCell>
        <mxCell id="k9qatuvnpu8ZYcSoqn7l-17" value="" style="endArrow=none;html=1;rounded=0;exitX=1;exitY=0.5;exitDx=0;exitDy=0;entryX=0;entryY=0.3333333333333333;entryDx=0;entryDy=0;entryPerimeter=0;" parent="1" source="k9qatuvnpu8ZYcSoqn7l-15" target="k9qatuvnpu8ZYcSoqn7l-10" edge="1">
          <mxGeometry width="50" height="50" relative="1" as="geometry">
            <mxPoint x="290" y="620" as="sourcePoint" />
            <mxPoint x="340" y="570" as="targetPoint" />
          </mxGeometry>
        </mxCell>
        <mxCell id="k9qatuvnpu8ZYcSoqn7l-20" value="System&lt;br&gt;Administrator" style="shape=umlActor;verticalLabelPosition=bottom;verticalAlign=top;html=1;outlineConnect=0;" parent="1" vertex="1">
          <mxGeometry x="-330" y="-1010" width="30" height="60" as="geometry" />
        </mxCell>
        <mxCell id="k9qatuvnpu8ZYcSoqn7l-22" value="Select Flights" style="ellipse;whiteSpace=wrap;html=1;" parent="1" vertex="1">
          <mxGeometry x="110" y="-420" width="120" height="80" as="geometry" />
        </mxCell>
        <mxCell id="k9qatuvnpu8ZYcSoqn7l-24" value="Select Seat" style="ellipse;whiteSpace=wrap;html=1;" parent="1" vertex="1">
          <mxGeometry x="180" y="-130" width="120" height="80" as="geometry" />
        </mxCell>
        <mxCell id="k9qatuvnpu8ZYcSoqn7l-25" value="Make Payment" style="ellipse;whiteSpace=wrap;html=1;" parent="1" vertex="1">
          <mxGeometry x="300" y="80" width="120" height="80" as="geometry" />
        </mxCell>
        <mxCell id="k9qatuvnpu8ZYcSoqn7l-26" value="Cancel Flight" style="ellipse;whiteSpace=wrap;html=1;" parent="1" vertex="1">
          <mxGeometry x="100" y="550" width="120" height="80" as="geometry" />
        </mxCell>
        <mxCell id="k9qatuvnpu8ZYcSoqn7l-28" value="Send Cancellation Email" style="ellipse;whiteSpace=wrap;html=1;" parent="1" vertex="1">
          <mxGeometry x="90" y="400" width="120" height="80" as="geometry" />
        </mxCell>
        <mxCell id="k9qatuvnpu8ZYcSoqn7l-32" value="Browse Seat Map" style="ellipse;whiteSpace=wrap;html=1;" parent="1" vertex="1">
          <mxGeometry x="110" y="-310" width="120" height="80" as="geometry" />
        </mxCell>
        <mxCell id="k9qatuvnpu8ZYcSoqn7l-33" value="Browse Flights" style="ellipse;whiteSpace=wrap;html=1;" parent="1" vertex="1">
          <mxGeometry x="110" y="-510" width="120" height="80" as="geometry" />
        </mxCell>
        <mxCell id="k9qatuvnpu8ZYcSoqn7l-37" value="Add/remove crew" style="ellipse;whiteSpace=wrap;html=1;" parent="1" vertex="1">
          <mxGeometry x="480" y="-760" width="120" height="80" as="geometry" />
        </mxCell>
        <mxCell id="k9qatuvnpu8ZYcSoqn7l-38" value="Add/remove aircraft" style="ellipse;whiteSpace=wrap;html=1;" parent="1" vertex="1">
          <mxGeometry x="470" y="-890" width="120" height="80" as="geometry" />
        </mxCell>
        <mxCell id="k9qatuvnpu8ZYcSoqn7l-39" value="Add/remove flight destinations" style="ellipse;whiteSpace=wrap;html=1;" parent="1" vertex="1">
          <mxGeometry x="440" y="-1000" width="120" height="80" as="geometry" />
        </mxCell>
        <mxCell id="Oktcj9MqUROiAOQRCkaV-9" style="edgeStyle=none;shape=connector;rounded=0;orthogonalLoop=1;jettySize=auto;html=1;exitX=0;exitY=0;exitDx=0;exitDy=0;labelBackgroundColor=default;strokeColor=default;align=center;verticalAlign=middle;fontFamily=Helvetica;fontSize=11;fontColor=default;endArrow=none;endFill=0;entryX=1;entryY=0.3333333333333333;entryDx=0;entryDy=0;entryPerimeter=0;" parent="1" source="k9qatuvnpu8ZYcSoqn7l-40" target="k9qatuvnpu8ZYcSoqn7l-20" edge="1">
          <mxGeometry relative="1" as="geometry">
            <mxPoint x="-90.00000000000023" y="-1030" as="targetPoint" />
          </mxGeometry>
        </mxCell>
        <mxCell id="k9qatuvnpu8ZYcSoqn7l-40" value="Add/remove/modify flight information" style="ellipse;whiteSpace=wrap;html=1;" parent="1" vertex="1">
          <mxGeometry x="130" y="-880" width="120" height="80" as="geometry" />
        </mxCell>
        <mxCell id="k9qatuvnpu8ZYcSoqn7l-41" value="Print User List" style="ellipse;whiteSpace=wrap;html=1;" parent="1" vertex="1">
          <mxGeometry x="130" y="-1180" width="120" height="80" as="geometry" />
        </mxCell>
        <mxCell id="k9qatuvnpu8ZYcSoqn7l-42" value="Browse List of Passengers" style="ellipse;whiteSpace=wrap;html=1;" parent="1" vertex="1">
          <mxGeometry x="110" y="-600" width="120" height="80" as="geometry" />
        </mxCell>
        <mxCell id="k9qatuvnpu8ZYcSoqn7l-43" value="" style="endArrow=none;html=1;rounded=0;entryX=1;entryY=0.3333333333333333;entryDx=0;entryDy=0;entryPerimeter=0;exitX=0;exitY=0.5;exitDx=0;exitDy=0;" parent="1" source="k9qatuvnpu8ZYcSoqn7l-26" target="k9qatuvnpu8ZYcSoqn7l-3" edge="1">
          <mxGeometry width="50" height="50" relative="1" as="geometry">
            <mxPoint x="-50" y="400" as="sourcePoint" />
            <mxPoint x="-90" y="270" as="targetPoint" />
          </mxGeometry>
        </mxCell>
        <mxCell id="k9qatuvnpu8ZYcSoqn7l-44" value="" style="endArrow=none;html=1;rounded=0;exitX=1;exitY=0.5;exitDx=0;exitDy=0;entryX=0;entryY=0.3333333333333333;entryDx=0;entryDy=0;entryPerimeter=0;" parent="1" source="k9qatuvnpu8ZYcSoqn7l-26" target="k9qatuvnpu8ZYcSoqn7l-10" edge="1">
          <mxGeometry width="50" height="50" relative="1" as="geometry">
            <mxPoint x="370" y="520" as="sourcePoint" />
            <mxPoint x="420" y="470" as="targetPoint" />
          </mxGeometry>
        </mxCell>
        <mxCell id="k9qatuvnpu8ZYcSoqn7l-45" value="Select Cancellation Insurance" style="ellipse;whiteSpace=wrap;html=1;" parent="1" vertex="1">
          <mxGeometry x="100" y="-20" width="120" height="80" as="geometry" />
        </mxCell>
        <mxCell id="k9qatuvnpu8ZYcSoqn7l-47" value="Receive Ticket&amp;nbsp;" style="ellipse;whiteSpace=wrap;html=1;" parent="1" vertex="1">
          <mxGeometry x="87.5" y="200" width="120" height="80" as="geometry" />
        </mxCell>
        <mxCell id="k9qatuvnpu8ZYcSoqn7l-48" value="Receive Receipt" style="ellipse;whiteSpace=wrap;html=1;" parent="1" vertex="1">
          <mxGeometry x="100" y="300" width="120" height="80" as="geometry" />
        </mxCell>
        <mxCell id="k9qatuvnpu8ZYcSoqn7l-49" value="" style="endArrow=none;html=1;rounded=0;exitX=1;exitY=0.3333333333333333;exitDx=0;exitDy=0;exitPerimeter=0;entryX=0;entryY=0.5;entryDx=0;entryDy=0;" parent="1" source="k9qatuvnpu8ZYcSoqn7l-3" target="k9qatuvnpu8ZYcSoqn7l-33" edge="1">
          <mxGeometry width="50" height="50" relative="1" as="geometry">
            <mxPoint x="370" y="140" as="sourcePoint" />
            <mxPoint x="420" y="90" as="targetPoint" />
          </mxGeometry>
        </mxCell>
        <mxCell id="k9qatuvnpu8ZYcSoqn7l-50" value="" style="endArrow=none;html=1;rounded=0;exitX=1;exitY=0.3333333333333333;exitDx=0;exitDy=0;exitPerimeter=0;entryX=0;entryY=0.5;entryDx=0;entryDy=0;" parent="1" source="k9qatuvnpu8ZYcSoqn7l-3" target="k9qatuvnpu8ZYcSoqn7l-22" edge="1">
          <mxGeometry width="50" height="50" relative="1" as="geometry">
            <mxPoint x="370" y="240" as="sourcePoint" />
            <mxPoint x="420" y="190" as="targetPoint" />
          </mxGeometry>
        </mxCell>
        <mxCell id="k9qatuvnpu8ZYcSoqn7l-57" value="" style="endArrow=none;html=1;rounded=0;exitX=1;exitY=0.3333333333333333;exitDx=0;exitDy=0;exitPerimeter=0;entryX=0;entryY=0.5;entryDx=0;entryDy=0;" parent="1" source="k9qatuvnpu8ZYcSoqn7l-3" target="k9qatuvnpu8ZYcSoqn7l-25" edge="1">
          <mxGeometry width="50" height="50" relative="1" as="geometry">
            <mxPoint x="370" y="140" as="sourcePoint" />
            <mxPoint x="420" y="90" as="targetPoint" />
          </mxGeometry>
        </mxCell>
        <mxCell id="k9qatuvnpu8ZYcSoqn7l-58" value="&amp;lt;&amp;lt;include&amp;gt;&amp;gt;" style="endArrow=open;endSize=12;dashed=1;html=1;rounded=0;entryX=0.5;entryY=1;entryDx=0;entryDy=0;exitX=0.5;exitY=0;exitDx=0;exitDy=0;" parent="1" source="k9qatuvnpu8ZYcSoqn7l-26" target="k9qatuvnpu8ZYcSoqn7l-28" edge="1">
          <mxGeometry x="0.0001" width="160" relative="1" as="geometry">
            <mxPoint x="170" y="360" as="sourcePoint" />
            <mxPoint x="180" y="140" as="targetPoint" />
            <mxPoint as="offset" />
          </mxGeometry>
        </mxCell>
        <mxCell id="k9qatuvnpu8ZYcSoqn7l-60" value="" style="endArrow=none;html=1;rounded=0;exitX=1;exitY=0.5;exitDx=0;exitDy=0;entryX=0;entryY=0.3333333333333333;entryDx=0;entryDy=0;entryPerimeter=0;" parent="1" source="k9qatuvnpu8ZYcSoqn7l-25" target="k9qatuvnpu8ZYcSoqn7l-10" edge="1">
          <mxGeometry width="50" height="50" relative="1" as="geometry">
            <mxPoint x="370" y="240" as="sourcePoint" />
            <mxPoint x="520" y="400" as="targetPoint" />
          </mxGeometry>
        </mxCell>
        <mxCell id="k9qatuvnpu8ZYcSoqn7l-62" value="Bank" style="shape=umlActor;verticalLabelPosition=bottom;verticalAlign=top;html=1;outlineConnect=0;" parent="1" vertex="1">
          <mxGeometry x="660" y="80" width="30" height="60" as="geometry" />
        </mxCell>
        <mxCell id="k9qatuvnpu8ZYcSoqn7l-63" value="" style="endArrow=none;html=1;rounded=0;entryX=0;entryY=0.3333333333333333;entryDx=0;entryDy=0;entryPerimeter=0;exitX=1;exitY=0.5;exitDx=0;exitDy=0;" parent="1" source="k9qatuvnpu8ZYcSoqn7l-25" target="k9qatuvnpu8ZYcSoqn7l-62" edge="1">
          <mxGeometry width="50" height="50" relative="1" as="geometry">
            <mxPoint x="520" y="320" as="sourcePoint" />
            <mxPoint x="520" y="160" as="targetPoint" />
          </mxGeometry>
        </mxCell>
        <mxCell id="k9qatuvnpu8ZYcSoqn7l-64" value="" style="endArrow=none;html=1;rounded=0;exitX=1;exitY=0.5;exitDx=0;exitDy=0;entryX=0;entryY=0.3333333333333333;entryDx=0;entryDy=0;entryPerimeter=0;" parent="1" source="k9qatuvnpu8ZYcSoqn7l-22" target="k9qatuvnpu8ZYcSoqn7l-10" edge="1">
          <mxGeometry width="50" height="50" relative="1" as="geometry">
            <mxPoint x="370" y="-160" as="sourcePoint" />
            <mxPoint x="420" y="-210" as="targetPoint" />
          </mxGeometry>
        </mxCell>
        <mxCell id="k9qatuvnpu8ZYcSoqn7l-65" value="" style="endArrow=none;html=1;rounded=0;entryX=0;entryY=0.3333333333333333;entryDx=0;entryDy=0;entryPerimeter=0;exitX=1;exitY=0.5;exitDx=0;exitDy=0;" parent="1" source="k9qatuvnpu8ZYcSoqn7l-33" target="k9qatuvnpu8ZYcSoqn7l-10" edge="1">
          <mxGeometry width="50" height="50" relative="1" as="geometry">
            <mxPoint x="370" y="240" as="sourcePoint" />
            <mxPoint x="420" y="190" as="targetPoint" />
          </mxGeometry>
        </mxCell>
        <mxCell id="Oktcj9MqUROiAOQRCkaV-16" style="edgeStyle=none;shape=connector;rounded=0;orthogonalLoop=1;jettySize=auto;html=1;exitX=1;exitY=0.3333333333333333;exitDx=0;exitDy=0;exitPerimeter=0;entryX=0;entryY=0.5;entryDx=0;entryDy=0;labelBackgroundColor=default;strokeColor=default;align=center;verticalAlign=middle;fontFamily=Helvetica;fontSize=11;fontColor=default;endArrow=none;endFill=0;" parent="1" source="k9qatuvnpu8ZYcSoqn7l-66" target="k9qatuvnpu8ZYcSoqn7l-15" edge="1">
          <mxGeometry relative="1" as="geometry" />
        </mxCell>
        <mxCell id="k9qatuvnpu8ZYcSoqn7l-66" value="Airline Agent" style="shape=umlActor;verticalLabelPosition=bottom;verticalAlign=top;html=1;outlineConnect=0;" parent="1" vertex="1">
          <mxGeometry x="-410" y="-290" width="30" height="60" as="geometry" />
        </mxCell>
        <mxCell id="k9qatuvnpu8ZYcSoqn7l-67" value="" style="endArrow=none;html=1;rounded=0;exitX=1;exitY=0.3333333333333333;exitDx=0;exitDy=0;exitPerimeter=0;entryX=0;entryY=0.5;entryDx=0;entryDy=0;" parent="1" source="k9qatuvnpu8ZYcSoqn7l-66" target="k9qatuvnpu8ZYcSoqn7l-42" edge="1">
          <mxGeometry width="50" height="50" relative="1" as="geometry">
            <mxPoint x="370" y="-160" as="sourcePoint" />
            <mxPoint x="420" y="-210" as="targetPoint" />
          </mxGeometry>
        </mxCell>
        <mxCell id="k9qatuvnpu8ZYcSoqn7l-68" value="" style="endArrow=none;html=1;rounded=0;exitX=1;exitY=0.5;exitDx=0;exitDy=0;entryX=0;entryY=0.3333333333333333;entryDx=0;entryDy=0;entryPerimeter=0;" parent="1" source="k9qatuvnpu8ZYcSoqn7l-42" target="k9qatuvnpu8ZYcSoqn7l-10" edge="1">
          <mxGeometry width="50" height="50" relative="1" as="geometry">
            <mxPoint x="370" y="-260" as="sourcePoint" />
            <mxPoint x="420" y="-310" as="targetPoint" />
          </mxGeometry>
        </mxCell>
        <mxCell id="Oktcj9MqUROiAOQRCkaV-15" style="edgeStyle=none;shape=connector;rounded=0;orthogonalLoop=1;jettySize=auto;html=1;exitX=1;exitY=0.3333333333333333;exitDx=0;exitDy=0;exitPerimeter=0;entryX=0;entryY=0.5;entryDx=0;entryDy=0;labelBackgroundColor=default;strokeColor=default;align=center;verticalAlign=middle;fontFamily=Helvetica;fontSize=11;fontColor=default;endArrow=none;endFill=0;" parent="1" source="k9qatuvnpu8ZYcSoqn7l-69" target="k9qatuvnpu8ZYcSoqn7l-15" edge="1">
          <mxGeometry relative="1" as="geometry" />
        </mxCell>
        <mxCell id="k9qatuvnpu8ZYcSoqn7l-69" value="Flight Attendent" style="shape=umlActor;verticalLabelPosition=bottom;verticalAlign=top;html=1;outlineConnect=0;" parent="1" vertex="1">
          <mxGeometry x="-300" y="-670" width="30" height="60" as="geometry" />
        </mxCell>
        <mxCell id="k9qatuvnpu8ZYcSoqn7l-70" value="" style="endArrow=none;html=1;rounded=0;exitX=1;exitY=0.3333333333333333;exitDx=0;exitDy=0;exitPerimeter=0;entryX=0;entryY=0.5;entryDx=0;entryDy=0;" parent="1" source="k9qatuvnpu8ZYcSoqn7l-69" target="k9qatuvnpu8ZYcSoqn7l-42" edge="1">
          <mxGeometry width="50" height="50" relative="1" as="geometry">
            <mxPoint x="370" y="-160" as="sourcePoint" />
            <mxPoint x="420" y="-210" as="targetPoint" />
          </mxGeometry>
        </mxCell>
        <mxCell id="k9qatuvnpu8ZYcSoqn7l-71" value="" style="endArrow=none;html=1;rounded=0;exitX=1;exitY=0.5;exitDx=0;exitDy=0;entryX=0;entryY=0.3333333333333333;entryDx=0;entryDy=0;entryPerimeter=0;" parent="1" source="k9qatuvnpu8ZYcSoqn7l-42" target="k9qatuvnpu8ZYcSoqn7l-10" edge="1">
          <mxGeometry width="50" height="50" relative="1" as="geometry">
            <mxPoint x="370" y="-360" as="sourcePoint" />
            <mxPoint x="520" y="400" as="targetPoint" />
          </mxGeometry>
        </mxCell>
        <mxCell id="k9qatuvnpu8ZYcSoqn7l-72" value="Browse Owned Aircraft" style="ellipse;whiteSpace=wrap;html=1;" parent="1" vertex="1">
          <mxGeometry x="130" y="-1080" width="120" height="80" as="geometry" />
        </mxCell>
        <mxCell id="k9qatuvnpu8ZYcSoqn7l-73" value="" style="endArrow=none;html=1;rounded=0;exitX=1.003;exitY=0.615;exitDx=0;exitDy=0;exitPerimeter=0;entryX=0;entryY=0.3333333333333333;entryDx=0;entryDy=0;entryPerimeter=0;" parent="1" source="k9qatuvnpu8ZYcSoqn7l-72" target="k9qatuvnpu8ZYcSoqn7l-10" edge="1">
          <mxGeometry width="50" height="50" relative="1" as="geometry">
            <mxPoint x="370" y="-660" as="sourcePoint" />
            <mxPoint x="520" y="400" as="targetPoint" />
          </mxGeometry>
        </mxCell>
        <mxCell id="k9qatuvnpu8ZYcSoqn7l-74" value="Browse Flight List on Specifc Date" style="ellipse;whiteSpace=wrap;html=1;" parent="1" vertex="1">
          <mxGeometry x="130" y="-980" width="120" height="80" as="geometry" />
        </mxCell>
        <mxCell id="k9qatuvnpu8ZYcSoqn7l-75" value="Browse Flight Crew on Specifc Date" style="ellipse;whiteSpace=wrap;html=1;" parent="1" vertex="1">
          <mxGeometry x="420" y="-1120" width="120" height="80" as="geometry" />
        </mxCell>
        <mxCell id="k9qatuvnpu8ZYcSoqn7l-76" value="&amp;lt;&amp;lt;include&amp;gt;&amp;gt;" style="endArrow=open;endSize=12;dashed=1;html=1;rounded=0;exitX=1;exitY=0.5;exitDx=0;exitDy=0;entryX=0;entryY=0.5;entryDx=0;entryDy=0;" parent="1" source="k9qatuvnpu8ZYcSoqn7l-74" target="k9qatuvnpu8ZYcSoqn7l-75" edge="1">
          <mxGeometry width="160" relative="1" as="geometry">
            <mxPoint x="110" y="-840" as="sourcePoint" />
            <mxPoint x="110" y="-780" as="targetPoint" />
          </mxGeometry>
        </mxCell>
        <mxCell id="k9qatuvnpu8ZYcSoqn7l-77" value="" style="endArrow=none;html=1;rounded=0;exitX=1;exitY=0.5;exitDx=0;exitDy=0;entryX=0;entryY=0.3333333333333333;entryDx=0;entryDy=0;entryPerimeter=0;" parent="1" source="k9qatuvnpu8ZYcSoqn7l-41" target="k9qatuvnpu8ZYcSoqn7l-10" edge="1">
          <mxGeometry width="50" height="50" relative="1" as="geometry">
            <mxPoint x="370" y="-860" as="sourcePoint" />
            <mxPoint x="520" y="400" as="targetPoint" />
          </mxGeometry>
        </mxCell>
        <mxCell id="k9qatuvnpu8ZYcSoqn7l-78" value="" style="endArrow=none;html=1;rounded=0;exitX=1;exitY=0.5;exitDx=0;exitDy=0;entryX=0;entryY=0.3333333333333333;entryDx=0;entryDy=0;entryPerimeter=0;" parent="1" source="k9qatuvnpu8ZYcSoqn7l-40" target="k9qatuvnpu8ZYcSoqn7l-10" edge="1">
          <mxGeometry width="50" height="50" relative="1" as="geometry">
            <mxPoint x="370" y="-860" as="sourcePoint" />
            <mxPoint x="520" y="400" as="targetPoint" />
          </mxGeometry>
        </mxCell>
        <mxCell id="k9qatuvnpu8ZYcSoqn7l-79" value="&amp;lt;&amp;lt;include&amp;gt;&amp;gt;" style="endArrow=open;endSize=12;dashed=1;html=1;rounded=0;exitX=1;exitY=0;exitDx=0;exitDy=0;entryX=0;entryY=0.5;entryDx=0;entryDy=0;" parent="1" source="k9qatuvnpu8ZYcSoqn7l-40" target="k9qatuvnpu8ZYcSoqn7l-39" edge="1">
          <mxGeometry width="160" relative="1" as="geometry">
            <mxPoint x="148" y="-810" as="sourcePoint" />
            <mxPoint x="10" y="-738" as="targetPoint" />
          </mxGeometry>
        </mxCell>
        <mxCell id="k9qatuvnpu8ZYcSoqn7l-80" value="&amp;lt;&amp;lt;include&amp;gt;&amp;gt;" style="endArrow=open;endSize=12;dashed=1;html=1;rounded=0;exitX=1;exitY=1;exitDx=0;exitDy=0;entryX=0;entryY=0.5;entryDx=0;entryDy=0;" parent="1" source="k9qatuvnpu8ZYcSoqn7l-40" target="k9qatuvnpu8ZYcSoqn7l-38" edge="1">
          <mxGeometry width="160" relative="1" as="geometry">
            <mxPoint x="144" y="-816" as="sourcePoint" />
            <mxPoint x="12" y="-728" as="targetPoint" />
          </mxGeometry>
        </mxCell>
        <mxCell id="k9qatuvnpu8ZYcSoqn7l-81" value="&amp;lt;&amp;lt;include&amp;gt;&amp;gt;" style="endArrow=open;endSize=12;dashed=1;html=1;rounded=0;exitX=0.597;exitY=1.005;exitDx=0;exitDy=0;entryX=0;entryY=0;entryDx=0;entryDy=0;exitPerimeter=0;" parent="1" source="k9qatuvnpu8ZYcSoqn7l-40" target="k9qatuvnpu8ZYcSoqn7l-37" edge="1">
          <mxGeometry width="160" relative="1" as="geometry">
            <mxPoint x="172" y="-792" as="sourcePoint" />
            <mxPoint x="80" y="-670" as="targetPoint" />
          </mxGeometry>
        </mxCell>
        <mxCell id="k9qatuvnpu8ZYcSoqn7l-82" value="Select Ordinary" style="ellipse;whiteSpace=wrap;html=1;" parent="1" vertex="1">
          <mxGeometry x="200" y="-215" width="80" height="45" as="geometry" />
        </mxCell>
        <mxCell id="k9qatuvnpu8ZYcSoqn7l-83" value="&amp;lt;&amp;lt;extend&amp;gt;&amp;gt;" style="endArrow=open;endSize=12;dashed=1;html=1;rounded=0;exitX=0.5;exitY=1;exitDx=0;exitDy=0;entryX=0.5;entryY=0;entryDx=0;entryDy=0;" parent="1" source="k9qatuvnpu8ZYcSoqn7l-82" target="k9qatuvnpu8ZYcSoqn7l-24" edge="1">
          <mxGeometry width="160" relative="1" as="geometry">
            <mxPoint x="90" y="-64" as="sourcePoint" />
            <mxPoint x="130" y="-220" as="targetPoint" />
          </mxGeometry>
        </mxCell>
        <mxCell id="k9qatuvnpu8ZYcSoqn7l-84" value="Select Comfort" style="ellipse;whiteSpace=wrap;html=1;" parent="1" vertex="1">
          <mxGeometry x="310" y="-200" width="60" height="50" as="geometry" />
        </mxCell>
        <mxCell id="k9qatuvnpu8ZYcSoqn7l-85" value="&amp;lt;&amp;lt;extend&amp;gt;&amp;gt;" style="endArrow=open;endSize=12;dashed=1;html=1;rounded=0;exitX=0.5;exitY=1;exitDx=0;exitDy=0;entryX=1;entryY=0;entryDx=0;entryDy=0;" parent="1" source="k9qatuvnpu8ZYcSoqn7l-84" target="k9qatuvnpu8ZYcSoqn7l-24" edge="1">
          <mxGeometry width="160" relative="1" as="geometry">
            <mxPoint x="126" y="-67" as="sourcePoint" />
            <mxPoint x="530" y="-260" as="targetPoint" />
          </mxGeometry>
        </mxCell>
        <mxCell id="k9qatuvnpu8ZYcSoqn7l-86" value="Select Business" style="ellipse;whiteSpace=wrap;html=1;" parent="1" vertex="1">
          <mxGeometry x="100" y="-215" width="70" height="50" as="geometry" />
        </mxCell>
        <mxCell id="k9qatuvnpu8ZYcSoqn7l-87" value="&amp;lt;&amp;lt;extend&amp;gt;&amp;gt;" style="endArrow=open;endSize=12;dashed=1;html=1;rounded=0;entryX=0;entryY=0;entryDx=0;entryDy=0;exitX=0.5;exitY=1;exitDx=0;exitDy=0;" parent="1" source="k9qatuvnpu8ZYcSoqn7l-86" target="k9qatuvnpu8ZYcSoqn7l-24" edge="1">
          <mxGeometry x="-0.0074" width="160" relative="1" as="geometry">
            <mxPoint x="90" y="-210" as="sourcePoint" />
            <mxPoint x="85" y="-190" as="targetPoint" />
            <mxPoint as="offset" />
          </mxGeometry>
        </mxCell>
        <mxCell id="Oktcj9MqUROiAOQRCkaV-1" value="Register for membership" style="ellipse;whiteSpace=wrap;html=1;" parent="1" vertex="1">
          <mxGeometry x="250" y="840" width="120" height="80" as="geometry" />
        </mxCell>
        <mxCell id="Oktcj9MqUROiAOQRCkaV-6" style="rounded=0;orthogonalLoop=1;jettySize=auto;html=1;entryX=1;entryY=0.3333333333333333;entryDx=0;entryDy=0;entryPerimeter=0;endArrow=none;endFill=0;" parent="1" source="k9qatuvnpu8ZYcSoqn7l-41" target="k9qatuvnpu8ZYcSoqn7l-20" edge="1">
          <mxGeometry relative="1" as="geometry" />
        </mxCell>
        <mxCell id="Oktcj9MqUROiAOQRCkaV-7" style="edgeStyle=none;shape=connector;rounded=0;orthogonalLoop=1;jettySize=auto;html=1;exitX=0;exitY=0.5;exitDx=0;exitDy=0;entryX=1;entryY=0.3333333333333333;entryDx=0;entryDy=0;entryPerimeter=0;labelBackgroundColor=default;strokeColor=default;align=center;verticalAlign=middle;fontFamily=Helvetica;fontSize=11;fontColor=default;endArrow=none;endFill=0;" parent="1" source="k9qatuvnpu8ZYcSoqn7l-72" target="k9qatuvnpu8ZYcSoqn7l-20" edge="1">
          <mxGeometry relative="1" as="geometry" />
        </mxCell>
        <mxCell id="Oktcj9MqUROiAOQRCkaV-8" style="edgeStyle=none;shape=connector;rounded=0;orthogonalLoop=1;jettySize=auto;html=1;exitX=0;exitY=0.5;exitDx=0;exitDy=0;entryX=1;entryY=0.3333333333333333;entryDx=0;entryDy=0;entryPerimeter=0;labelBackgroundColor=default;strokeColor=default;align=center;verticalAlign=middle;fontFamily=Helvetica;fontSize=11;fontColor=default;endArrow=none;endFill=0;" parent="1" source="k9qatuvnpu8ZYcSoqn7l-74" target="k9qatuvnpu8ZYcSoqn7l-20" edge="1">
          <mxGeometry relative="1" as="geometry" />
        </mxCell>
        <mxCell id="Oktcj9MqUROiAOQRCkaV-14" style="edgeStyle=none;shape=connector;rounded=0;orthogonalLoop=1;jettySize=auto;html=1;exitX=0;exitY=0.5;exitDx=0;exitDy=0;entryX=1;entryY=0.3333333333333333;entryDx=0;entryDy=0;entryPerimeter=0;labelBackgroundColor=default;strokeColor=default;align=center;verticalAlign=middle;fontFamily=Helvetica;fontSize=11;fontColor=default;endArrow=none;endFill=0;" parent="1" source="k9qatuvnpu8ZYcSoqn7l-15" target="k9qatuvnpu8ZYcSoqn7l-20" edge="1">
          <mxGeometry relative="1" as="geometry" />
        </mxCell>
        <mxCell id="Oktcj9MqUROiAOQRCkaV-18" style="edgeStyle=none;shape=connector;rounded=0;orthogonalLoop=1;jettySize=auto;html=1;exitX=0;exitY=0.5;exitDx=0;exitDy=0;entryX=1;entryY=0.3333333333333333;entryDx=0;entryDy=0;entryPerimeter=0;labelBackgroundColor=default;strokeColor=default;align=center;verticalAlign=middle;fontFamily=Helvetica;fontSize=11;fontColor=default;endArrow=none;endFill=0;" parent="1" source="k9qatuvnpu8ZYcSoqn7l-32" target="k9qatuvnpu8ZYcSoqn7l-3" edge="1">
          <mxGeometry relative="1" as="geometry" />
        </mxCell>
        <mxCell id="Oktcj9MqUROiAOQRCkaV-19" style="edgeStyle=none;shape=connector;rounded=0;orthogonalLoop=1;jettySize=auto;html=1;exitX=1;exitY=0.5;exitDx=0;exitDy=0;entryX=0;entryY=0.3333333333333333;entryDx=0;entryDy=0;entryPerimeter=0;labelBackgroundColor=default;strokeColor=default;align=center;verticalAlign=middle;fontFamily=Helvetica;fontSize=11;fontColor=default;endArrow=none;endFill=0;" parent="1" source="k9qatuvnpu8ZYcSoqn7l-32" target="k9qatuvnpu8ZYcSoqn7l-10" edge="1">
          <mxGeometry relative="1" as="geometry" />
        </mxCell>
        <mxCell id="Oktcj9MqUROiAOQRCkaV-21" style="edgeStyle=none;shape=connector;rounded=0;orthogonalLoop=1;jettySize=auto;html=1;exitX=1;exitY=0.5;exitDx=0;exitDy=0;entryX=0;entryY=0.3333333333333333;entryDx=0;entryDy=0;entryPerimeter=0;labelBackgroundColor=default;strokeColor=default;align=center;verticalAlign=middle;fontFamily=Helvetica;fontSize=11;fontColor=default;endArrow=none;endFill=0;" parent="1" source="k9qatuvnpu8ZYcSoqn7l-24" target="k9qatuvnpu8ZYcSoqn7l-10" edge="1">
          <mxGeometry relative="1" as="geometry" />
        </mxCell>
        <mxCell id="kHkBaE3qFRDBK7_jSeHC-1" value="" style="endArrow=none;html=1;rounded=0;exitX=0;exitY=0.5;exitDx=0;exitDy=0;entryX=1;entryY=0.3333333333333333;entryDx=0;entryDy=0;entryPerimeter=0;" parent="1" source="k9qatuvnpu8ZYcSoqn7l-48" target="k9qatuvnpu8ZYcSoqn7l-3" edge="1">
          <mxGeometry width="50" height="50" relative="1" as="geometry">
            <mxPoint x="170" y="350" as="sourcePoint" />
            <mxPoint x="-130" y="220" as="targetPoint" />
          </mxGeometry>
        </mxCell>
        <mxCell id="kHkBaE3qFRDBK7_jSeHC-4" value="&amp;lt;&amp;lt;include&amp;gt;&amp;gt;" style="endArrow=open;endSize=12;dashed=1;html=1;rounded=0;entryX=1;entryY=1;entryDx=0;entryDy=0;exitX=0.5;exitY=0;exitDx=0;exitDy=0;" parent="1" source="Oktcj9MqUROiAOQRCkaV-1" target="k9qatuvnpu8ZYcSoqn7l-5" edge="1">
          <mxGeometry x="0.0091" width="160" relative="1" as="geometry">
            <mxPoint x="230" y="672" as="sourcePoint" />
            <mxPoint x="298" y="530" as="targetPoint" />
            <mxPoint as="offset" />
          </mxGeometry>
        </mxCell>
        <mxCell id="kHkBaE3qFRDBK7_jSeHC-8" value="" style="endArrow=none;html=1;rounded=0;exitX=0;exitY=0.5;exitDx=0;exitDy=0;entryX=1;entryY=0.3333333333333333;entryDx=0;entryDy=0;entryPerimeter=0;" parent="1" source="Oktcj9MqUROiAOQRCkaV-1" target="k9qatuvnpu8ZYcSoqn7l-3" edge="1">
          <mxGeometry width="50" height="50" relative="1" as="geometry">
            <mxPoint x="120" y="480" as="sourcePoint" />
            <mxPoint x="-130" y="220" as="targetPoint" />
          </mxGeometry>
        </mxCell>
        <mxCell id="kHkBaE3qFRDBK7_jSeHC-10" value="" style="endArrow=none;html=1;rounded=0;entryX=1;entryY=0.3333333333333333;entryDx=0;entryDy=0;entryPerimeter=0;exitX=0;exitY=0.5;exitDx=0;exitDy=0;" parent="1" source="k9qatuvnpu8ZYcSoqn7l-33" target="k9qatuvnpu8ZYcSoqn7l-66" edge="1">
          <mxGeometry width="50" height="50" relative="1" as="geometry">
            <mxPoint x="120" y="-280" as="sourcePoint" />
            <mxPoint x="170" y="-330" as="targetPoint" />
          </mxGeometry>
        </mxCell>
        <mxCell id="kHkBaE3qFRDBK7_jSeHC-11" value="" style="endArrow=none;html=1;rounded=0;exitX=0;exitY=0.5;exitDx=0;exitDy=0;entryX=1;entryY=0.3333333333333333;entryDx=0;entryDy=0;entryPerimeter=0;" parent="1" source="k9qatuvnpu8ZYcSoqn7l-22" target="k9qatuvnpu8ZYcSoqn7l-66" edge="1">
          <mxGeometry width="50" height="50" relative="1" as="geometry">
            <mxPoint x="120" y="-460" as="sourcePoint" />
            <mxPoint x="-110" y="-450" as="targetPoint" />
          </mxGeometry>
        </mxCell>
        <mxCell id="kHkBaE3qFRDBK7_jSeHC-12" value="" style="endArrow=none;html=1;rounded=0;exitX=0;exitY=0.5;exitDx=0;exitDy=0;entryX=1;entryY=0.3333333333333333;entryDx=0;entryDy=0;entryPerimeter=0;" parent="1" source="k9qatuvnpu8ZYcSoqn7l-32" target="k9qatuvnpu8ZYcSoqn7l-66" edge="1">
          <mxGeometry width="50" height="50" relative="1" as="geometry">
            <mxPoint x="130" y="-450" as="sourcePoint" />
            <mxPoint x="-120" y="-450" as="targetPoint" />
          </mxGeometry>
        </mxCell>
        <mxCell id="kHkBaE3qFRDBK7_jSeHC-13" value="" style="endArrow=none;html=1;rounded=0;entryX=1;entryY=0.3333333333333333;entryDx=0;entryDy=0;entryPerimeter=0;exitX=0;exitY=0.5;exitDx=0;exitDy=0;" parent="1" source="k9qatuvnpu8ZYcSoqn7l-24" target="k9qatuvnpu8ZYcSoqn7l-66" edge="1">
          <mxGeometry width="50" height="50" relative="1" as="geometry">
            <mxPoint x="140" y="-440" as="sourcePoint" />
            <mxPoint x="-100" y="-440" as="targetPoint" />
          </mxGeometry>
        </mxCell>
        <mxCell id="kHkBaE3qFRDBK7_jSeHC-15" value="" style="endArrow=none;html=1;rounded=0;entryX=1;entryY=0.3333333333333333;entryDx=0;entryDy=0;entryPerimeter=0;exitX=0;exitY=0.5;exitDx=0;exitDy=0;" parent="1" source="k9qatuvnpu8ZYcSoqn7l-25" target="k9qatuvnpu8ZYcSoqn7l-66" edge="1">
          <mxGeometry width="50" height="50" relative="1" as="geometry">
            <mxPoint x="80" y="30" as="sourcePoint" />
            <mxPoint x="130" y="-20" as="targetPoint" />
          </mxGeometry>
        </mxCell>
        <mxCell id="kHkBaE3qFRDBK7_jSeHC-17" value="" style="endArrow=none;html=1;rounded=0;entryX=1;entryY=0.3333333333333333;entryDx=0;entryDy=0;entryPerimeter=0;exitX=0;exitY=0.5;exitDx=0;exitDy=0;" parent="1" source="k9qatuvnpu8ZYcSoqn7l-47" target="k9qatuvnpu8ZYcSoqn7l-66" edge="1">
          <mxGeometry width="50" height="50" relative="1" as="geometry">
            <mxPoint x="120" y="60" as="sourcePoint" />
            <mxPoint x="-360" y="-250" as="targetPoint" />
          </mxGeometry>
        </mxCell>
        <mxCell id="kHkBaE3qFRDBK7_jSeHC-18" value="" style="endArrow=none;html=1;rounded=0;entryX=1;entryY=0.3333333333333333;entryDx=0;entryDy=0;entryPerimeter=0;exitX=0;exitY=0.5;exitDx=0;exitDy=0;" parent="1" source="k9qatuvnpu8ZYcSoqn7l-48" target="k9qatuvnpu8ZYcSoqn7l-66" edge="1">
          <mxGeometry width="50" height="50" relative="1" as="geometry">
            <mxPoint x="130" y="70" as="sourcePoint" />
            <mxPoint x="-350" y="-240" as="targetPoint" />
          </mxGeometry>
        </mxCell>
        <mxCell id="kHkBaE3qFRDBK7_jSeHC-19" value="" style="endArrow=none;html=1;rounded=0;entryX=1;entryY=0.3333333333333333;entryDx=0;entryDy=0;entryPerimeter=0;exitX=0;exitY=0.5;exitDx=0;exitDy=0;" parent="1" source="k9qatuvnpu8ZYcSoqn7l-26" target="k9qatuvnpu8ZYcSoqn7l-66" edge="1">
          <mxGeometry width="50" height="50" relative="1" as="geometry">
            <mxPoint x="60" y="350" as="sourcePoint" />
            <mxPoint x="-340" y="-230" as="targetPoint" />
          </mxGeometry>
        </mxCell>
        <mxCell id="kHkBaE3qFRDBK7_jSeHC-24" value="Email Server" style="shape=umlActor;verticalLabelPosition=bottom;verticalAlign=top;html=1;outlineConnect=0;" parent="1" vertex="1">
          <mxGeometry x="570" y="470" width="30" height="60" as="geometry" />
        </mxCell>
        <mxCell id="kHkBaE3qFRDBK7_jSeHC-26" value="" style="endArrow=none;html=1;rounded=0;entryX=0;entryY=0.3333333333333333;entryDx=0;entryDy=0;entryPerimeter=0;exitX=1;exitY=0.5;exitDx=0;exitDy=0;" parent="1" source="k9qatuvnpu8ZYcSoqn7l-47" target="kHkBaE3qFRDBK7_jSeHC-24" edge="1">
          <mxGeometry width="50" height="50" relative="1" as="geometry">
            <mxPoint x="220" y="350" as="sourcePoint" />
            <mxPoint x="270" y="300" as="targetPoint" />
          </mxGeometry>
        </mxCell>
        <mxCell id="kHkBaE3qFRDBK7_jSeHC-27" value="" style="endArrow=none;html=1;rounded=0;entryX=0;entryY=0.3333333333333333;entryDx=0;entryDy=0;entryPerimeter=0;exitX=1;exitY=0.5;exitDx=0;exitDy=0;" parent="1" source="k9qatuvnpu8ZYcSoqn7l-48" target="kHkBaE3qFRDBK7_jSeHC-24" edge="1">
          <mxGeometry width="50" height="50" relative="1" as="geometry">
            <mxPoint x="218" y="250" as="sourcePoint" />
            <mxPoint x="540" y="240" as="targetPoint" />
          </mxGeometry>
        </mxCell>
        <mxCell id="kHkBaE3qFRDBK7_jSeHC-28" value="" style="endArrow=none;html=1;rounded=0;entryX=0;entryY=0.3333333333333333;entryDx=0;entryDy=0;entryPerimeter=0;exitX=1;exitY=0.5;exitDx=0;exitDy=0;" parent="1" source="k9qatuvnpu8ZYcSoqn7l-28" target="kHkBaE3qFRDBK7_jSeHC-24" edge="1">
          <mxGeometry width="50" height="50" relative="1" as="geometry">
            <mxPoint x="228" y="260" as="sourcePoint" />
            <mxPoint x="550" y="250" as="targetPoint" />
          </mxGeometry>
        </mxCell>
        <mxCell id="kHkBaE3qFRDBK7_jSeHC-29" value="" style="endArrow=none;html=1;rounded=0;entryX=0;entryY=0.3333333333333333;entryDx=0;entryDy=0;entryPerimeter=0;exitX=1;exitY=0.5;exitDx=0;exitDy=0;" parent="1" source="k9qatuvnpu8ZYcSoqn7l-5" target="kHkBaE3qFRDBK7_jSeHC-24" edge="1">
          <mxGeometry width="50" height="50" relative="1" as="geometry">
            <mxPoint x="270" y="690" as="sourcePoint" />
            <mxPoint x="560" y="260" as="targetPoint" />
          </mxGeometry>
        </mxCell>
        <mxCell id="ycGHXCZgxtWu9t3GuYdv-1" value="&amp;lt;&amp;lt;include&amp;gt;&amp;gt;" style="endArrow=open;endSize=12;dashed=1;html=1;rounded=0;entryX=0.5;entryY=1;entryDx=0;entryDy=0;exitX=1;exitY=0;exitDx=0;exitDy=0;" parent="1" source="Oktcj9MqUROiAOQRCkaV-1" target="k9qatuvnpu8ZYcSoqn7l-25" edge="1">
          <mxGeometry x="-0.1801" y="-4" width="160" relative="1" as="geometry">
            <mxPoint x="380" y="830" as="sourcePoint" />
            <mxPoint x="272" y="769" as="targetPoint" />
            <mxPoint y="1" as="offset" />
          </mxGeometry>
        </mxCell>
        <mxCell id="ycGHXCZgxtWu9t3GuYdv-2" value="&amp;lt;&amp;lt;include&amp;gt;&amp;gt;" style="endArrow=open;endSize=12;dashed=1;html=1;rounded=0;exitX=1;exitY=0;exitDx=0;exitDy=0;entryX=0.5;entryY=1;entryDx=0;entryDy=0;" parent="1" source="k9qatuvnpu8ZYcSoqn7l-26" target="k9qatuvnpu8ZYcSoqn7l-25" edge="1">
          <mxGeometry x="0.0091" width="160" relative="1" as="geometry">
            <mxPoint x="362" y="862" as="sourcePoint" />
            <mxPoint x="330" y="150" as="targetPoint" />
            <mxPoint as="offset" />
          </mxGeometry>
        </mxCell>
        <mxCell id="ycGHXCZgxtWu9t3GuYdv-3" value="&amp;lt;&amp;lt;include&amp;gt;&amp;gt;" style="endArrow=open;endSize=12;dashed=1;html=1;rounded=0;entryX=1;entryY=0;entryDx=0;entryDy=0;exitX=0.5;exitY=1;exitDx=0;exitDy=0;" parent="1" source="k9qatuvnpu8ZYcSoqn7l-24" target="k9qatuvnpu8ZYcSoqn7l-45" edge="1">
          <mxGeometry x="0.0001" width="160" relative="1" as="geometry">
            <mxPoint x="310" y="100" as="sourcePoint" />
            <mxPoint x="300" y="30" as="targetPoint" />
            <mxPoint as="offset" />
          </mxGeometry>
        </mxCell>
        <mxCell id="ycGHXCZgxtWu9t3GuYdv-4" value="&amp;lt;&amp;lt;include&amp;gt;&amp;gt;" style="endArrow=open;endSize=12;dashed=1;html=1;rounded=0;entryX=0.5;entryY=0;entryDx=0;entryDy=0;exitX=1;exitY=1;exitDx=0;exitDy=0;" parent="1" source="k9qatuvnpu8ZYcSoqn7l-24" target="k9qatuvnpu8ZYcSoqn7l-25" edge="1">
          <mxGeometry x="0.0001" width="160" relative="1" as="geometry">
            <mxPoint x="190" y="-40" as="sourcePoint" />
            <mxPoint x="180" y="10" as="targetPoint" />
            <mxPoint as="offset" />
          </mxGeometry>
        </mxCell>
        <mxCell id="KsYGDugqutIYDaPRRCGD-1" value="Log Out" style="ellipse;whiteSpace=wrap;html=1;" vertex="1" parent="1">
          <mxGeometry x="120" y="-700" width="110" height="60" as="geometry" />
        </mxCell>
        <mxCell id="KsYGDugqutIYDaPRRCGD-2" style="edgeStyle=none;shape=connector;rounded=0;orthogonalLoop=1;jettySize=auto;html=1;exitX=0;exitY=0.5;exitDx=0;exitDy=0;entryX=1;entryY=0.3333333333333333;entryDx=0;entryDy=0;entryPerimeter=0;labelBackgroundColor=default;strokeColor=default;align=center;verticalAlign=middle;fontFamily=Helvetica;fontSize=11;fontColor=default;endArrow=none;endFill=0;" edge="1" parent="1" source="KsYGDugqutIYDaPRRCGD-1" target="k9qatuvnpu8ZYcSoqn7l-20">
          <mxGeometry relative="1" as="geometry">
            <mxPoint x="130" y="-740" as="sourcePoint" />
            <mxPoint x="-290" y="-980" as="targetPoint" />
          </mxGeometry>
        </mxCell>
        <mxCell id="KsYGDugqutIYDaPRRCGD-3" style="edgeStyle=none;shape=connector;rounded=0;orthogonalLoop=1;jettySize=auto;html=1;exitX=0;exitY=0.5;exitDx=0;exitDy=0;entryX=1;entryY=0.3333333333333333;entryDx=0;entryDy=0;entryPerimeter=0;labelBackgroundColor=default;strokeColor=default;align=center;verticalAlign=middle;fontFamily=Helvetica;fontSize=11;fontColor=default;endArrow=none;endFill=0;" edge="1" parent="1" source="KsYGDugqutIYDaPRRCGD-1" target="k9qatuvnpu8ZYcSoqn7l-69">
          <mxGeometry relative="1" as="geometry">
            <mxPoint x="130" y="-660" as="sourcePoint" />
            <mxPoint x="-290" y="-980" as="targetPoint" />
          </mxGeometry>
        </mxCell>
        <mxCell id="KsYGDugqutIYDaPRRCGD-4" style="edgeStyle=none;shape=connector;rounded=0;orthogonalLoop=1;jettySize=auto;html=1;exitX=0;exitY=0.5;exitDx=0;exitDy=0;labelBackgroundColor=default;strokeColor=default;align=center;verticalAlign=middle;fontFamily=Helvetica;fontSize=11;fontColor=default;endArrow=none;endFill=0;entryX=1;entryY=0.3333333333333333;entryDx=0;entryDy=0;entryPerimeter=0;" edge="1" parent="1" source="KsYGDugqutIYDaPRRCGD-1" target="k9qatuvnpu8ZYcSoqn7l-66">
          <mxGeometry relative="1" as="geometry">
            <mxPoint x="140" y="-650" as="sourcePoint" />
            <mxPoint x="-250" y="-530" as="targetPoint" />
          </mxGeometry>
        </mxCell>
        <mxCell id="KsYGDugqutIYDaPRRCGD-5" style="edgeStyle=none;shape=connector;rounded=0;orthogonalLoop=1;jettySize=auto;html=1;labelBackgroundColor=default;strokeColor=default;align=center;verticalAlign=middle;fontFamily=Helvetica;fontSize=11;fontColor=default;endArrow=none;endFill=0;exitX=0;exitY=0.5;exitDx=0;exitDy=0;entryX=1;entryY=0.3333333333333333;entryDx=0;entryDy=0;entryPerimeter=0;" edge="1" parent="1" source="KsYGDugqutIYDaPRRCGD-1" target="k9qatuvnpu8ZYcSoqn7l-3">
          <mxGeometry relative="1" as="geometry">
            <mxPoint x="110" y="-620" as="sourcePoint" />
            <mxPoint x="-370" y="-60" as="targetPoint" />
          </mxGeometry>
        </mxCell>
        <mxCell id="KsYGDugqutIYDaPRRCGD-6" value="" style="endArrow=none;html=1;rounded=0;exitX=1;exitY=0.5;exitDx=0;exitDy=0;entryX=0;entryY=0.3333333333333333;entryDx=0;entryDy=0;entryPerimeter=0;" edge="1" parent="1" source="KsYGDugqutIYDaPRRCGD-1" target="k9qatuvnpu8ZYcSoqn7l-10">
          <mxGeometry width="50" height="50" relative="1" as="geometry">
            <mxPoint x="240" y="-740" as="sourcePoint" />
            <mxPoint x="680" y="-300" as="targetPoint" />
          </mxGeometry>
        </mxCell>
        <mxCell id="KsYGDugqutIYDaPRRCGD-7" value="&amp;lt;&amp;lt;include&amp;gt;&amp;gt;" style="endArrow=open;endSize=12;dashed=1;html=1;rounded=0;entryX=1;entryY=0;entryDx=0;entryDy=0;exitX=0.35;exitY=0.961;exitDx=0;exitDy=0;exitPerimeter=0;" edge="1" parent="1" source="k9qatuvnpu8ZYcSoqn7l-25" target="k9qatuvnpu8ZYcSoqn7l-48">
          <mxGeometry x="0.0001" width="160" relative="1" as="geometry">
            <mxPoint x="290" y="190" as="sourcePoint" />
            <mxPoint x="300" y="120" as="targetPoint" />
            <mxPoint as="offset" />
          </mxGeometry>
        </mxCell>
      </root>
    </mxGraphModel>
  </diagram>
</mxfile>
